# xmcd
#
# Track frame offsets:
#	150
#	15425
#	47882
#	66015
#	86067
#	103772
#	124415
#	143155
#	178950
#
# Disc length: 2713 seconds
#
# Revision: 0
# Processed by: cddbd v1.5.2PL0 Copyright (c) Steve Scherf et al.
# Submitted via: dBpowerAMP V4.0
#
DISCID=7f0a9709
DTITLE=Pinetop Perkins - Hot Blues From A Cold Place - Recorded Live in Reykjavik, Iceland, 1991
DYEAR=2007
DGENRE=Blues
TTITLE0=Look On Yonder Wall
TTITLE1=Whiskey-Headed Woman
TTITLE2=For You My Love
TTITLE3=Just Keep On Drinking
TTITLE4=Hi-Heel Sneakers
TTITLE5=Got My Mojo Working
TTITLE6=Kindney Stew Blues
TTITLE7=Sunnyland Slim
TTITLE8=Merry Christmas Baby
EXTD=
EXTT0=
EXTT1=
EXTT2=
EXTT3=
EXTT4=
EXTT5=
EXTT6=
EXTT7=
EXTT8=
PLAYORDER=
